<svg width="35" height="47.99999999999999" xmlns="http://www.w3.org/2000/svg">

 <g>
  <title>background</title>
  <rect fill="none" id="canvas_background" height="50" width="37" y="-1" x="-1"/>
 </g>
 <g>
  <title>Layer 1</title>
  <path fill="#292fd7" id="Fill-55" d="m17.637163,47.823606l-0.9,-1.1c-0.6,-0.8 -15.9,-18.7 -15.9,-29.4c0,-9.3 7.6,-16.8 16.8,-16.8s16.8,7.6 16.8,16.8c0,10.7 -15.3,28.7 -15.9,29.4l-0.9,1.1l0,0zm0,-45c-8,0 -14.4,6.5 -14.4,14.4c0,8.4 11.1,22.7 14.4,26.8c3.3,-4.1 14.4,-18.3 14.4,-26.8c0,-7.9 -6.4,-14.4 -14.4,-14.4l0,0z" class="st0"/>
  <path fill="#292fd7" id="Fill-56" d="m17.637163,23.723606c-3.5,0 -6.4,-2.9 -6.4,-6.4s2.9,-6.4 6.4,-6.4s6.4,2.9 6.4,6.4s-2.9,6.4 -6.4,6.4l0,0zm0,-10.4c-2.2,0 -4,1.8 -4,4s1.8,4 4,4c2.2,0 4,-1.8 4,-4s-1.8,-4 -4,-4l0,0z" class="st0"/>
 </g>
</svg>