<svg width="38" height="43" xmlns="http://www.w3.org/2000/svg">

 <g>
  <title>background</title>
  <rect fill="none" id="canvas_background" height="45" width="40" y="-1" x="-1"/>
 </g>
 <g>
  <title>Layer 1</title>
  <path fill="#292fd7" id="svg_1" fill-rule="evenodd" d="m32.302043,12.333105c2.859,3.187 4.614,7.385 4.614,12.004c0,9.941 -8.059,18 -18,18s-18,-8.059 -18,-18c0,-8.917 6.49,-16.299 15,-17.73l0,-4.27l-2,0c-0.553,0 -1,-0.448 -1,-1s0.447,-1 1,-1l10,0c0.553,0 1,0.448 1,1s-0.447,1 -1,1l-2,0l0,4.265c3.427,0.581 6.524,2.124 9.005,4.35l2.329,-2.329c0.381,-0.381 0.999,-0.381 1.381,0c0.381,0.381 0.381,1 0,1.381l-2.329,2.329zm-12.386,-9.996l-2,0l0,4.051c0.333,-0.019 0.662,-0.051 1,-0.051s0.667,0.029 1,0.047l0,-4.047zm-1,6c-8.836,0 -16,7.163 -16,16c0,8.837 7.164,16 16,16c8.837,0 16,-7.163 16,-16c0,-8.836 -7.163,-16 -16,-16zm0,20c-2.209,0 -4,-1.791 -4,-4c0,-0.749 0.219,-1.442 0.578,-2.041l-5.293,-5.292c-0.381,-0.381 -0.381,-1 0,-1.381c0.382,-0.381 1,-0.381 1.381,0l5.293,5.292c0.6,-0.359 1.292,-0.578 2.041,-0.578c2.209,0 4,1.791 4,4s-1.791,4 -4,4zm0,-6c-1.104,0 -2,0.896 -2,2s0.896,2 2,2s2,-0.896 2,-2s-0.896,-2 -2,-2z" clip-rule="evenodd"/>
 </g>
</svg>